<mxfile host="app.diagrams.net" modified="2024-07-16T10:02:45.180Z" agent="Mozilla/5.0 (Windows NT 10.0; Win64; x64) AppleWebKit/537.36 (KHTML, like Gecko) Chrome/126.0.0.0 Safari/537.36" etag="yncpjlH6rrRyqMw-JEfE" version="24.6.5" type="github">
  <diagram name="第 1 页" id="dWz5VRoZP6XMQZGXMqBe">
    <mxGraphModel dx="1300" dy="666" grid="1" gridSize="3" guides="1" tooltips="1" connect="1" arrows="1" fold="1" page="1" pageScale="1" pageWidth="3300" pageHeight="4681" math="0" shadow="0">
      <root>
        <mxCell id="0" />
        <mxCell id="1" parent="0" />
        <mxCell id="9gOClyyKIG1rIvr2oT8H-1" value="" style="pointerEvents=1;verticalLabelPosition=bottom;shadow=0;dashed=0;align=center;html=1;verticalAlign=top;shape=mxgraph.electrical.electro-mechanical.twoWayContact2;elSwitchState=1;flipH=1;flipV=1;" vertex="1" parent="1">
          <mxGeometry x="225" y="200" width="75" height="30" as="geometry" />
        </mxCell>
        <mxCell id="9gOClyyKIG1rIvr2oT8H-4" style="edgeStyle=orthogonalEdgeStyle;rounded=0;orthogonalLoop=1;jettySize=auto;html=1;entryX=0;entryY=0.5;entryDx=0;entryDy=0;" edge="1" parent="1" source="9gOClyyKIG1rIvr2oT8H-2" target="9gOClyyKIG1rIvr2oT8H-3">
          <mxGeometry relative="1" as="geometry" />
        </mxCell>
        <mxCell id="9gOClyyKIG1rIvr2oT8H-2" value="Sub-ADC i" style="rounded=0;whiteSpace=wrap;html=1;fontFamily=Times New Roman;fontStyle=3;fontSize=17;" vertex="1" parent="1">
          <mxGeometry x="300" y="185" width="120" height="60" as="geometry" />
        </mxCell>
        <mxCell id="9gOClyyKIG1rIvr2oT8H-6" style="edgeStyle=orthogonalEdgeStyle;rounded=0;orthogonalLoop=1;jettySize=auto;html=1;entryX=0;entryY=0.5;entryDx=0;entryDy=0;" edge="1" parent="1" source="9gOClyyKIG1rIvr2oT8H-3" target="9gOClyyKIG1rIvr2oT8H-5">
          <mxGeometry relative="1" as="geometry" />
        </mxCell>
        <mxCell id="9gOClyyKIG1rIvr2oT8H-3" value="" style="rounded=0;whiteSpace=wrap;html=1;" vertex="1" parent="1">
          <mxGeometry x="490" y="187.5" width="80" height="55" as="geometry" />
        </mxCell>
        <mxCell id="9gOClyyKIG1rIvr2oT8H-5" value="N点累加平均" style="rounded=0;whiteSpace=wrap;html=1;fontFamily=Times New Roman;fontStyle=1;fontSize=15;" vertex="1" parent="1">
          <mxGeometry x="620" y="185" width="120" height="60" as="geometry" />
        </mxCell>
        <mxCell id="9gOClyyKIG1rIvr2oT8H-18" style="edgeStyle=orthogonalEdgeStyle;rounded=0;orthogonalLoop=1;jettySize=auto;html=1;entryX=0;entryY=0.5;entryDx=0;entryDy=0;endArrow=none;endFill=0;" edge="1" parent="1" source="9gOClyyKIG1rIvr2oT8H-7" target="9gOClyyKIG1rIvr2oT8H-8">
          <mxGeometry relative="1" as="geometry" />
        </mxCell>
        <mxCell id="9gOClyyKIG1rIvr2oT8H-7" value="" style="pointerEvents=1;verticalLabelPosition=bottom;shadow=0;dashed=0;align=center;html=1;verticalAlign=top;shape=mxgraph.electrical.signal_sources.source;aspect=fixed;points=[[0.5,0,0],[1,0.5,0],[0.5,1,0],[0,0.5,0]];elSignalType=dc3;flipV=1;" vertex="1" parent="1">
          <mxGeometry x="800" y="110" width="60" height="60" as="geometry" />
        </mxCell>
        <mxCell id="9gOClyyKIG1rIvr2oT8H-8" value="滤波" style="rounded=0;whiteSpace=wrap;html=1;fontStyle=1;fontSize=15;" vertex="1" parent="1">
          <mxGeometry x="900" y="110" width="120" height="60" as="geometry" />
        </mxCell>
        <mxCell id="9gOClyyKIG1rIvr2oT8H-9" value="" style="pointerEvents=1;verticalLabelPosition=bottom;shadow=0;dashed=0;align=center;html=1;verticalAlign=top;shape=mxgraph.electrical.miscellaneous.light_bulb;direction=south;" vertex="1" parent="1">
          <mxGeometry x="1065" y="222.5" width="50" height="60" as="geometry" />
        </mxCell>
        <mxCell id="9gOClyyKIG1rIvr2oT8H-21" style="edgeStyle=orthogonalEdgeStyle;rounded=0;orthogonalLoop=1;jettySize=auto;html=1;" edge="1" parent="1" source="9gOClyyKIG1rIvr2oT8H-10">
          <mxGeometry relative="1" as="geometry">
            <mxPoint x="1170" y="337.5" as="targetPoint" />
          </mxGeometry>
        </mxCell>
        <mxCell id="9gOClyyKIG1rIvr2oT8H-10" value="" style="ellipse;whiteSpace=wrap;html=1;aspect=fixed;" vertex="1" parent="1">
          <mxGeometry x="1060" y="307.5" width="60" height="60" as="geometry" />
        </mxCell>
        <mxCell id="9gOClyyKIG1rIvr2oT8H-11" value="+" style="text;html=1;align=center;verticalAlign=middle;whiteSpace=wrap;rounded=0;fontFamily=Times New Roman;fontStyle=1;fontSize=17;" vertex="1" parent="1">
          <mxGeometry x="1040" y="322.5" width="60" height="30" as="geometry" />
        </mxCell>
        <mxCell id="9gOClyyKIG1rIvr2oT8H-12" value="-" style="text;html=1;align=center;verticalAlign=middle;whiteSpace=wrap;rounded=0;fontFamily=Times New Roman;fontSize=20;fontStyle=1" vertex="1" parent="1">
          <mxGeometry x="1060" y="300" width="60" height="30" as="geometry" />
        </mxCell>
        <mxCell id="9gOClyyKIG1rIvr2oT8H-13" value="" style="endArrow=classic;html=1;rounded=0;" edge="1" parent="1">
          <mxGeometry width="50" height="50" relative="1" as="geometry">
            <mxPoint x="460" y="220" as="sourcePoint" />
            <mxPoint x="1060" y="340" as="targetPoint" />
            <Array as="points">
              <mxPoint x="460" y="340" />
            </Array>
          </mxGeometry>
        </mxCell>
        <mxCell id="9gOClyyKIG1rIvr2oT8H-15" style="edgeStyle=orthogonalEdgeStyle;rounded=0;orthogonalLoop=1;jettySize=auto;html=1;entryX=0.5;entryY=0.333;entryDx=0;entryDy=0;entryPerimeter=0;" edge="1" parent="1" source="9gOClyyKIG1rIvr2oT8H-9" target="9gOClyyKIG1rIvr2oT8H-12">
          <mxGeometry relative="1" as="geometry" />
        </mxCell>
        <mxCell id="9gOClyyKIG1rIvr2oT8H-16" style="edgeStyle=orthogonalEdgeStyle;rounded=0;orthogonalLoop=1;jettySize=auto;html=1;entryX=0;entryY=0.5;entryDx=0;entryDy=0;entryPerimeter=0;" edge="1" parent="1" source="9gOClyyKIG1rIvr2oT8H-8" target="9gOClyyKIG1rIvr2oT8H-9">
          <mxGeometry relative="1" as="geometry" />
        </mxCell>
        <mxCell id="9gOClyyKIG1rIvr2oT8H-17" style="edgeStyle=orthogonalEdgeStyle;rounded=0;orthogonalLoop=1;jettySize=auto;html=1;entryX=0.5;entryY=0;entryDx=0;entryDy=0;entryPerimeter=0;" edge="1" parent="1" source="9gOClyyKIG1rIvr2oT8H-5" target="9gOClyyKIG1rIvr2oT8H-7">
          <mxGeometry relative="1" as="geometry" />
        </mxCell>
        <mxCell id="9gOClyyKIG1rIvr2oT8H-19" value="" style="endArrow=classic;html=1;rounded=0;entryX=0.5;entryY=1;entryDx=0;entryDy=0;entryPerimeter=0;" edge="1" parent="1" target="9gOClyyKIG1rIvr2oT8H-7">
          <mxGeometry width="50" height="50" relative="1" as="geometry">
            <mxPoint x="830" y="60" as="sourcePoint" />
            <mxPoint x="820" y="50" as="targetPoint" />
          </mxGeometry>
        </mxCell>
        <mxCell id="9gOClyyKIG1rIvr2oT8H-20" value="" style="endArrow=classic;html=1;rounded=0;entryX=0.524;entryY=1.136;entryDx=0;entryDy=0;entryPerimeter=0;" edge="1" parent="1" target="9gOClyyKIG1rIvr2oT8H-9">
          <mxGeometry width="50" height="50" relative="1" as="geometry">
            <mxPoint x="990" y="340" as="sourcePoint" />
            <mxPoint x="1040" y="290" as="targetPoint" />
            <Array as="points">
              <mxPoint x="990" y="254" />
            </Array>
          </mxGeometry>
        </mxCell>
        <mxCell id="9gOClyyKIG1rIvr2oT8H-22" value="G&lt;sub&gt;ref&lt;/sub&gt;" style="text;html=1;align=center;verticalAlign=middle;whiteSpace=wrap;rounded=0;fontFamily=Times New Roman;fontStyle=2" vertex="1" parent="1">
          <mxGeometry x="810" y="70" width="60" height="30" as="geometry" />
        </mxCell>
        <mxCell id="9gOClyyKIG1rIvr2oT8H-23" value="Gi" style="text;html=1;align=center;verticalAlign=middle;whiteSpace=wrap;rounded=0;fontFamily=Times New Roman;fontStyle=2" vertex="1" parent="1">
          <mxGeometry x="810" y="170" width="60" height="30" as="geometry" />
        </mxCell>
        <mxCell id="9gOClyyKIG1rIvr2oT8H-24" value="" style="endArrow=none;html=1;rounded=0;" edge="1" parent="1" target="9gOClyyKIG1rIvr2oT8H-3">
          <mxGeometry width="50" height="50" relative="1" as="geometry">
            <mxPoint x="490" y="240" as="sourcePoint" />
            <mxPoint x="540" y="190" as="targetPoint" />
          </mxGeometry>
        </mxCell>
        <mxCell id="9gOClyyKIG1rIvr2oT8H-25" value="" style="endArrow=none;html=1;rounded=0;exitX=0.25;exitY=1;exitDx=0;exitDy=0;" edge="1" parent="1" source="9gOClyyKIG1rIvr2oT8H-3">
          <mxGeometry width="50" height="50" relative="1" as="geometry">
            <mxPoint x="460" y="240" as="sourcePoint" />
            <mxPoint x="510" y="190" as="targetPoint" />
          </mxGeometry>
        </mxCell>
        <mxCell id="9gOClyyKIG1rIvr2oT8H-26" value="" style="endArrow=none;html=1;rounded=0;exitX=0.75;exitY=1;exitDx=0;exitDy=0;" edge="1" parent="1" source="9gOClyyKIG1rIvr2oT8H-3">
          <mxGeometry width="50" height="50" relative="1" as="geometry">
            <mxPoint x="500" y="240" as="sourcePoint" />
            <mxPoint x="550" y="190" as="targetPoint" />
          </mxGeometry>
        </mxCell>
        <mxCell id="9gOClyyKIG1rIvr2oT8H-27" value="x(t)" style="text;html=1;align=center;verticalAlign=middle;whiteSpace=wrap;rounded=0;fontFamily=Times New Roman;fontStyle=2;fontSize=14;" vertex="1" parent="1">
          <mxGeometry x="210" y="174" width="60" height="30" as="geometry" />
        </mxCell>
        <mxCell id="9gOClyyKIG1rIvr2oT8H-28" value="V&lt;sub&gt;ref&lt;/sub&gt;" style="text;html=1;align=center;verticalAlign=middle;whiteSpace=wrap;rounded=0;fontFamily=Times New Roman;fontSize=14;fontStyle=2" vertex="1" parent="1">
          <mxGeometry x="210" y="204" width="60" height="30" as="geometry" />
        </mxCell>
      </root>
    </mxGraphModel>
  </diagram>
</mxfile>
